<?xml version="1.0" encoding="utf-8"?>
<!-- Generator: Adobe Illustrator 16.0.0, SVG Export Plug-In . SVG Version: 6.00 Build 0)  -->
<!DOCTYPE svg PUBLIC "-//W3C//DTD SVG 1.1//EN" "http://www.w3.org/Graphics/SVG/1.1/DTD/svg11.dtd">
<svg version="1.1" id="Layer_1" xmlns="http://www.w3.org/2000/svg" xmlns:xlink="http://www.w3.org/1999/xlink" x="0px" y="0px"
	 width="62.09px" height="62.09px" viewBox="0 0 62.09 62.09" enable-background="new 0 0 62.09 62.09" xml:space="preserve">
<g>
	<g>
		<path fill="#FFFFFF" d="M14.49,42.6c-1.304-0.756-2.371-2.605-2.37-4.111l0.008-16.367c0-1.507,1.07-3.357,2.374-4.108
			l14.179-8.18c1.305-0.753,3.44-0.752,4.744,0.001L47.6,18.025c1.303,0.755,2.37,2.604,2.369,4.11l-0.008,16.368
			c0,1.508-1.07,3.357-2.374,4.109l-14.179,8.178c-1.305,0.753-3.441,0.752-4.745-0.001L14.49,42.6z"/>
	</g>
	<path fill="#F4F4F4" d="M17.605,39.393c-0.634-0.367-1.152-1.266-1.152-1.999l0.004-14.176c0.004-0.731,0.522-1.629,1.154-1.995
		l12.284-7.084c0.632-0.366,1.672-0.366,2.307,0l12.273,7.093c0.634,0.368,1.152,1.266,1.152,1.999l-0.008,14.177
		c0,0.73-0.518,1.629-1.154,1.996l-12.279,7.083c-0.633,0.367-1.673,0.364-2.306-0.002L17.605,39.393z"/>
	<path fill="#CDCCCC" d="M17.61,22.555c-0.633-0.366-1.15-0.068-1.154,0.663l-0.004,14.176c0,0.733,0.518,1.632,1.152,1.999
		l12.275,7.092c0.553,0.286,1.155,0.274,1.155,0.274l0.001-15.116c0-0.733-0.52-1.63-1.152-1.999L17.61,22.555z"/>
	<path fill="#3F6FB6" d="M44.459,22.555c0.637-0.366,1.15-0.068,1.153,0.663l0.006,14.176c0,0.733-0.518,1.632-1.151,1.999
		l-12.274,7.092c-0.555,0.286-1.154,0.274-1.154,0.274l-0.004-15.116c0-0.733,0.519-1.63,1.152-1.999L44.459,22.555z"/>
</g>
</svg>
